HIERARCHY
ROOT Hips
{
  OFFSET 1.07115 101.632 1.13042
  CHANNELS 6 Xposition Yposition Zposition Zrotation Xrotation Yrotation
  JOINT Spine
  {
    OFFSET 0 10.1816 0.1315
    CHANNELS 3 Zrotation Xrotation Yrotation
    JOINT Spine1
    {
      OFFSET 0 10.0835 -1.0008
      CHANNELS 3 Zrotation Xrotation Yrotation
      JOINT Spine2
      {
        OFFSET 0 9.1 -1.3734
        CHANNELS 3 Zrotation Xrotation Yrotation
        JOINT Neck
        {
          OFFSET 0 16.6717 -2.5162
          CHANNELS 3 Zrotation Xrotation Yrotation
          JOINT Head
          {
            OFFSET 0 9.6179 1.685
            CHANNELS 3 Zrotation Xrotation Yrotation
            End Site
            {
              OFFSET 0 0 0
            }
          }
        }
        JOINT LeftShoulder
        {
          OFFSET 4.5704 10.946 -2.628
          CHANNELS 3 Zrotation Xrotation Yrotation
          JOINT LeftArm
          {
            OFFSET 10.5924 -0.5246 -2.2321
            CHANNELS 3 Zrotation Xrotation Yrotation
            JOINT LeftForeArm
            {
              OFFSET 27.8415 -0.0001 0
              CHANNELS 3 Zrotation Xrotation Yrotation
              JOINT LeftHand
              {
                OFFSET 28.3288 0 0
                CHANNELS 3 Zrotation Xrotation Yrotation
                End Site
                {
                  OFFSET 0 0 0
                }
              }
            }
          }
        }
        JOINT RightShoulder
        {
          OFFSET -4.57 10.9462 -2.628
          CHANNELS 3 Zrotation Xrotation Yrotation
          JOINT RightArm
          {
            OFFSET -10.5928 -0.5248 -2.2321
            CHANNELS 3 Zrotation Xrotation Yrotation
            JOINT RightForeArm
            {
              OFFSET -27.8415 0 0
              CHANNELS 3 Zrotation Xrotation Yrotation
              JOINT RightHand
              {
                OFFSET -28.3288 0 0.0001
                CHANNELS 3 Zrotation Xrotation Yrotation
                End Site
                {
                  OFFSET 0 0 0
                }
              }
            }
          }
        }
      }
    }
  }
  JOINT LeftUpLeg
  {
    OFFSET 8.2078 -6.7517 -1.5996
    CHANNELS 3 Zrotation Xrotation Yrotation
    JOINT LeftLeg
    {
      OFFSET 0 -44.3705 0.2846
      CHANNELS 3 Zrotation Xrotation Yrotation
      JOINT LeftFoot
      {
        OFFSET 0 -44.4279 -2.9822
        CHANNELS 3 Zrotation Xrotation Yrotation
        JOINT LeftToeBase
        {
          OFFSET 0 -8.7287 10.7106
          CHANNELS 3 Zrotation Xrotation Yrotation
          End Site
          {
            OFFSET 0 0 0
          }
        }
      }
    }
  }
  JOINT RightUpLeg
  {
    OFFSET -8.2078 -6.7517 -1.5996
    CHANNELS 3 Zrotation Xrotation Yrotation
    JOINT RightLeg
    {
      OFFSET 0 -44.3705 0.2862
      CHANNELS 3 Zrotation Xrotation Yrotation
      JOINT RightFoot
      {
        OFFSET 0 -44.4277 -2.9838
        CHANNELS 3 Zrotation Xrotation Yrotation
        JOINT RightToeBase
        {
          OFFSET 0 -8.7287 10.7106
          CHANNELS 3 Zrotation Xrotation Yrotation
          End Site
          {
            OFFSET 0 0 0
          }
        }
      }
    }
  }
}
MOTION
Frames:	9
Frame Time:	0.0333333
14.3087 101.222 -40.0669 1.68577 0.062641 30.5465 -1.20578 1.93055 3.86076 -3.51236 3.85296 7.98145 -3.54062 3.80735 7.99033 1.40931 1.89071 10.6448 -23.2442 6.3087 60.4658 -10.7615 0.802284 -0.276441 -56.6832 5.37363 4.2929 -0.000220059 -6.16298e-06 -47.528 -18.0479 8.11451 18.2652 11.217 1.0134 -4.68051 62.7623 35.6419 6.14849 -1.44457e-06 -2.6577e-07 38.1712 -15.491 3.33561 1.65974 -1.50057 -11.8725 2.10132 -1.42969 25.2294 -5.67764 3.16911 -12.2975 0.222334 -4.20979e-07 -2.35284 -1.22008e-05 -16.1658 -15.857 -17.7502 -1.78452 37.4225 -8.82219 -1.53838 -9.35388 -4.63662 1.94118e-06 -2.92457e-06 -3.3176e-06 
14.2627 101.082 -41.4421 1.79562 0.0619679 30.4379 -1.15226 1.87011 3.84448 -3.70651 3.74337 8.17654 -3.74309 3.68894 8.18376 1.34744 1.8872 10.6581 -23.2453 6.39607 60.4453 -10.9335 0.762149 0.00197053 -55.13 5.90149 4.06901 -0.000204281 -2.28211e-06 -48.4412 -18.0153 7.73019 17.8695 11.1993 1.00221 -4.68003 62.3037 36.2998 6.23482 3.73674e-06 -1.24114e-06 38.024 -15.7377 2.59346 1.87663 -2.06236 -12.9993 1.6124 -1.61808 25.9197 -5.10223 3.57153 -11.7902 0.230315 -3.80565e-07 -1.82528 -3.03738e-06 -14.9767 -14.4463 -16.9681 -1.41143 40.7083 -9.01487 -0.545327 -9.98599 -4.06698 -1.29425e-06 -6.78689e-06 -2.32717e-06 
14.1463 100.943 -42.8284 1.90056 0.13155 30.1018 -1.13545 1.7829 3.85012 -3.89574 3.60143 8.42786 -3.94196 3.5411 8.43099 1.29872 1.86809 10.6822 -23.216 6.49877 60.4761 -11.1194 0.725693 0.271732 -53.6568 6.72355 4.06327 -0.000210526 3.3781e-06 -49.4705 -18.2261 7.2895 17.5179 11.1733 0.987627 -4.69965 61.7993 36.813 6.32218 -3.80034e-06 4.03396e-07 37.9603 -15.8752 2.26094 1.93867 -2.63978 -14.1309 1.10545 -1.78453 26.4496 -4.33381 3.86651 -11.2076 0.226375 3.51824e-07 -1.42178 -1.44816e-06 -13.6291 -12.8656 -16.1072 -1.06254 43.3934 -9.23879 0.536689 -10.2485 -3.1657 1.47314 -1.45552 0.0154332 
13.9527 100.831 -44.2333 2.03308 0.201836 29.6347 -1.15951 1.67907 3.88346 -4.0688 3.43873 8.71716 -4.12525 3.37549 8.71462 1.27588 1.83819 10.7109 -23.1682 6.6051 60.5522 -11.3056 0.697812 0.506983 -52.379 7.68167 4.31552 -0.000218857 1.2212e-05 -50.5782 -18.4687 6.68474 17.1286 11.1425 0.971152 -4.73553 61.3596 37.0925 6.40777 2.85718e-06 -2.23985e-06 37.9948 -15.8661 2.40659 1.79549 -3.20241 -15.1528 0.619503 -1.92607 26.7255 -3.44883 4.06155 -10.4912 0.206467 -5.19363e-08 -1.18141 1.07141e-05 -12.1929 -11.0332 -15.2069 -0.792359 45.4172 -9.44227 1.75097 -10.2209 -1.73555 1.19535 -3.29371 0.0542112 
13.6637 100.734 -45.6753 2.2479 0.23821 29.1015 -1.22748 1.56962 3.93991 -4.22758 3.2696 9.0106 -4.29371 3.20666 9.0015 1.28966 1.80053 10.7359 -23.1191 6.69975 60.6566 -11.4741 0.676743 0.700096 -51.4277 8.62824 4.81176 -0.000207696 -5.64036e-07 -51.6675 -18.6101 5.96779 16.7305 11.1118 0.954812 -4.78265 61.0364 37.1092 6.49047 -1.12657e-05 6.44715e-06 38.0971 -15.7388 2.80787 1.55586 -3.75941 -16.0446 0.164272 -2.06103 26.7883 -2.47678 4.17725 -9.64255 0.170058 9.12895e-08 -1.09891 4.61896e-06 -10.7955 -8.96503 -14.3596 -0.593911 46.754 -9.2938 3.07377 -9.82114 -0.053728 0.384899 -4.25686 0.0270732 
13.2719 100.629 -47.19 2.53937 0.277383 28.525 -1.34331 1.46488 4.00917 -4.38033 3.10762 9.27357 -4.45429 3.04819 9.25785 1.3389 1.7564 10.7518 -23.0853 6.75974 60.766 -11.6101 0.656699 0.85891 -50.8947 9.47655 5.48581 -0.000220051 3.69816e-06 -52.6225 -18.6519 5.27823 16.439 11.0841 0.939785 -4.83564 60.8145 36.8966 6.57112 -7.74423e-06 6.02698e-06 38.2185 -15.5528 3.19786 1.34109 -4.33564 -16.9102 -0.299517 -2.1885 26.7166 -1.4162 4.22584 -8.67028 0.119448 2.78865e-08 -1.13892 -7.70133e-06 -9.50109 -6.81944 -13.6425 -0.445034 47.3368 -7.27162 4.20677 -9.13372 0.14422 1.80526e-06 -5.52848 7.35819e-08 
12.7828 100.52 -48.8076 2.83548 0.353866 27.9399 -1.49521 1.37457 4.07979 -4.5297 2.96422 9.48387 -4.60851 2.91112 9.46225 1.40409 1.70913 10.7588 -23.0813 6.75644 60.8568 -11.71 0.633407 0.995533 -50.784 10.2237 6.23588 -0.00018754 -1.06232e-05 -53.3614 -18.728 4.74829 16.3898 11.0588 0.925634 -4.8888 60.6135 36.536 6.65156 5.43159e-07 2.68031e-06 38.3303 -15.3687 3.44428 1.18968 -4.89126 -17.8412 -0.794281 -2.28428 26.4966 -0.33473 4.20448 -7.52792 0.0541201 7.84447e-07 -1.06445 -8.97666e-06 -8.30454 -4.69539 -13.0207 -0.436603 46.9463 -4.95317 5.40265 -8.32621 0.130235 1.96714e-07 -7.3522 1.10718e-07 
12.2016 100.412 -50.5458 3.09631 0.457772 27.3797 -1.65139 1.3072 4.1434 -4.65995 2.84886 9.63546 -4.73999 2.80369 9.60955 1.45187 1.66718 10.7615 -23.1203 6.66661 60.9106 -11.7837 0.608505 1.11426 -51.0096 10.9359 6.94705 -0.000208745 1.1042e-05 -53.8628 -19.0386 4.44019 16.6623 11.0329 0.910914 -4.93536 60.2991 36.1393 6.73481 -8.2306e-06 1.43277e-06 38.4304 -15.2411 3.51902 1.09339 -5.39861 -18.8132 -1.28541 -2.35161 26.0681 0.675462 4.16437 -6.179 -0.0131907 6.77221e-07 -1.08073 1.1982e-05 -7.13847 -2.57949 -12.419 -0.625497 45.2211 -3.03242 6.4088 -7.75228 0.111915 -2.4573e-06 -9.26992 -4.9521e-07 
11.5247 100.295 -52.4285 3.33383 0.583438 26.8541 -1.7575 1.26978 4.1952 -4.73418 2.77099 9.73127 -4.81195 2.73339 9.70346 1.45182 1.64233 10.7649 -23.2146 6.48982 60.9185 -11.847 0.589225 1.20654 -51.4562 11.7012 7.51155 -0.000196293 2.80095e-06 -54.1478 -19.7364 4.34628 17.2255 11.0045 0.895083 -4.96716 59.7187 35.821 6.82545 -9.1653e-06 8.14986e-06 38.5254 -15.2098 3.4593 1.02896 -5.8558 -19.8213 -1.7385 -2.41911 25.4182 1.58615 4.14636 -4.60165 -0.0763316 5.23733e-07 -1.19657 -3.2997e-06 -6.0625 -0.485366 -11.8743 -0.970402 41.9637 -1.8968 6.8246 -7.87211 0.122117 2.23812e-07 -11.548 -3.94725e-07 
